      <svg xmlns="http://www.w3.org/2000/svg" width="206" height="68" viewBox="0 0 206 68" fill="none">
        <g clip-path="url(#clip0_1_3)">
          <path d="M25.1766 0.190387C23.0033 0.224387 21.2661 1.99239 21.297 4.14119V4.53219C21.2814 5.05378 21.3717 5.57316 21.5625 6.05956C21.7534 6.54596 22.0408 6.9895 22.4079 7.36389C22.7749 7.73828 23.2141 8.03591 23.6995 8.23915C24.1848 8.4424 24.7064 8.54712 25.2333 8.54712C25.7602 8.54712 26.2818 8.4424 26.7671 8.23915C27.2525 8.03591 27.6917 7.73828 28.0587 7.36389C28.4258 6.9895 28.7132 6.54596 28.904 6.05956C29.0949 5.57316 29.1852 5.05378 29.1696 4.53219V4.14119C29.1765 3.62017 29.078 3.10306 28.8797 2.62041C28.6815 2.13775 28.3875 1.69933 28.0153 1.33104C27.6431 0.962755 27.2001 0.67207 26.7126 0.476156C26.225 0.280243 25.7028 0.183073 25.1766 0.190387ZM44.3278 1.06419C43.3031 1.09286 42.33 1.51611 41.6154 2.24399L12.3737 31.246C12.0081 31.6083 11.7181 32.0384 11.5203 32.5117C11.3225 32.9851 11.2207 33.4923 11.2209 34.0046C11.2211 34.5168 11.3231 35.0241 11.5212 35.4972C11.7193 35.9705 12.0096 36.4004 12.3755 36.7625C12.7413 37.1246 13.1757 37.4118 13.6536 37.6077C14.1316 37.8036 14.6438 37.9043 15.1611 37.9041C15.6784 37.904 16.1906 37.8029 16.6684 37.6068C17.1462 37.4106 17.5804 37.1231 17.946 36.7608L47.198 7.75879C47.7688 7.21095 48.1587 6.50492 48.3167 5.7335C48.4746 4.96209 48.3931 4.1614 48.0829 3.4367C47.7727 2.71199 47.2484 2.09721 46.5788 1.67315C45.9092 1.24909 45.1256 1.03562 44.3312 1.06079M56.3376 8.70399C55.3144 8.73459 54.3462 9.15959 53.6321 9.88379L30.876 32.4156C30.4938 32.7737 30.188 33.2041 29.9766 33.6813C29.7651 34.1585 29.6524 34.6727 29.6451 35.1938C29.6378 35.7148 29.7359 36.232 29.9338 36.7148C30.1317 37.1976 30.4253 37.6363 30.7973 38.0049C31.1692 38.3734 31.612 38.6645 32.0994 38.8607C32.5869 39.057 33.1091 39.1545 33.6352 39.1476C34.1614 39.1407 34.6808 39.0294 35.1627 38.8203C35.6447 38.6112 36.0795 38.3086 36.4414 37.9304L59.1941 15.3986C59.7643 14.8511 60.1541 14.1458 60.3122 13.375C60.4703 12.6043 60.3894 11.8042 60.0801 11.0798C59.7708 10.3554 59.2475 9.74057 58.579 9.31597C57.9105 8.89137 57.128 8.67685 56.3341 8.70059M15.3607 10.3428C14.3376 10.3734 13.3694 10.795 12.6518 11.5226L1.20168 22.8242C0.813373 23.1805 0.501597 23.6107 0.284981 24.089C0.0683642 24.5673 -0.0486449 25.084 -0.0590531 25.6081C-0.0694614 26.1322 0.0269449 26.653 0.224403 27.1394C0.421862 27.6258 0.716319 28.0678 1.09018 28.4389C1.46403 28.8101 1.90961 29.1028 2.40028 29.2995C2.89095 29.4963 3.41664 29.593 3.94593 29.584C4.47522 29.575 4.99724 29.4604 5.48079 29.2471C5.96434 29.0337 6.39949 28.726 6.76024 28.3424L18.2138 17.0374C18.7833 16.4905 19.1728 15.7861 19.3311 15.0164C19.4895 14.2466 19.4095 13.4475 19.1015 12.7236C18.7935 11.9996 18.2719 11.3847 17.605 10.9593C16.9382 10.5339 16.1571 10.3178 15.3642 10.3394M63.8154 20.7502C62.7922 20.7808 61.824 21.2024 61.1099 21.93L21.5442 61.1082C21.1622 61.4666 20.8566 61.8971 20.6455 62.3744C20.4344 62.8517 20.322 63.3661 20.315 63.8871C20.308 64.4082 20.4065 64.9253 20.6047 65.408C20.8029 65.8907 21.0968 66.3292 21.469 66.6975C21.8412 67.0659 22.2841 67.3566 22.7717 67.5526C23.2592 67.7486 23.7815 67.8458 24.3076 67.8385C24.8338 67.8312 25.3531 67.7196 25.8349 67.5103C26.3168 67.3009 26.7514 66.9981 27.113 66.6196L66.6753 27.4414C67.2433 26.8933 67.631 26.1882 67.7875 25.4183C67.9441 24.6485 67.8624 23.8497 67.5529 23.1267C67.2435 22.4036 66.7208 21.7899 66.0533 21.3658C65.3858 20.9418 64.6046 20.7272 63.8119 20.7502M63.733 40.358C62.7098 40.3886 61.7416 40.8136 61.0275 41.5378L55.6749 46.8418C55.2826 47.1974 54.9671 47.6281 54.7474 48.1078C54.5278 48.5875 54.4085 49.1063 54.3968 49.6329C54.3852 50.1595 54.4814 50.683 54.6796 51.1718C54.8778 51.6605 55.174 52.1045 55.5502 52.4768C55.9264 52.8491 56.3749 53.1421 56.8686 53.3381C57.3623 53.5341 57.8909 53.6291 58.4227 53.6172C58.9544 53.6053 59.4782 53.4869 59.9625 53.2691C60.4468 53.0513 60.8815 52.7385 61.2404 52.3498L66.5964 47.0526C67.1668 46.5049 67.5567 45.7992 67.7147 45.0282C67.8727 44.2571 67.7915 43.4567 67.4818 42.7322C67.1721 42.0076 66.6483 41.3928 65.9792 40.9685C65.3101 40.5441 64.5271 40.3301 63.733 40.3546M4.44961 40.5926C3.42648 40.6232 2.45828 41.0448 1.74414 41.7724L1.66518 41.8506C1.28321 42.209 0.97765 42.6395 0.766538 43.1168C0.555426 43.5941 0.443046 44.1085 0.436035 44.6295C0.429025 45.1506 0.527526 45.6677 0.72572 46.1504C0.923915 46.6331 1.21778 47.0716 1.58997 47.4399C1.96215 47.8083 2.4051 48.099 2.89266 48.295C3.38021 48.4909 3.90248 48.5882 4.42862 48.5809C4.95475 48.5736 5.47408 48.462 5.95593 48.2527C6.43778 48.0433 6.87237 47.7405 7.23404 47.362L7.30958 47.2838C7.8773 46.7359 8.26484 46.0311 8.42152 45.2616C8.57819 44.4921 8.49671 43.6936 8.18771 42.9707C7.87872 42.2478 7.35661 41.634 6.68967 41.2097C6.02272 40.7854 5.242 40.5704 4.44961 40.5926ZM22.9587 41.7622C21.9356 41.7894 20.9674 42.211 20.2498 42.9386L9.34554 53.6962C8.97269 54.0564 8.67569 54.4862 8.47174 54.9608C8.26779 55.4354 8.16094 55.9454 8.15738 56.4612C8.15382 56.977 8.25362 57.4883 8.451 57.9657C8.64839 58.443 8.93943 58.8768 9.30728 59.242C9.67513 59.6072 10.1125 59.8965 10.594 60.0931C11.0755 60.2898 11.5917 60.3898 12.1125 60.3876C12.6334 60.3853 13.1486 60.2808 13.6284 60.08C14.1081 59.8792 14.5429 59.5861 14.9075 59.2178L25.8084 48.4568C26.3779 47.9099 26.7673 47.2055 26.9257 46.4358C27.0841 45.666 27.004 44.8669 26.696 44.143C26.388 43.419 25.8664 42.8041 25.1996 42.3787C24.5327 41.9533 23.7517 41.7372 22.9587 41.7588M43.854 59.7006C43.0036 59.6992 42.1756 59.9704 41.4938 60.4737C40.812 60.977 40.3131 61.6854 40.0715 62.4928C39.83 63.3002 39.8589 64.1634 40.1539 64.9532C40.4489 65.7431 40.9942 66.4171 41.7081 66.8746L41.945 67.031C42.3749 67.3253 42.8597 67.532 43.3711 67.6389C43.8824 67.7458 44.4102 67.7509 44.9235 67.6538C45.4369 67.5566 45.9256 67.3593 46.3611 67.0733C46.7967 66.7872 47.1704 66.4182 47.4604 65.9876C47.7505 65.5571 47.9511 65.0737 48.0506 64.5656C48.1501 64.0575 48.1465 63.5349 48.0399 63.0282C47.9334 62.5215 47.726 62.0409 47.43 61.6143C47.134 61.1878 46.7552 60.8239 46.3157 60.5438L46.0753 60.3874C45.4217 59.9421 44.6474 59.7027 43.854 59.7006Z" fill="#E5E5E5"/>
          <path d="M132.4 49.606C132.4 51.9588 131.96 54.043 131.081 55.8552C130.269 57.5885 128.959 59.0465 127.315 60.0474C125.701 61.0198 123.851 61.5094 121.777 61.5094C119.703 61.5094 117.863 61.0334 116.253 60.095C114.63 59.1285 113.323 57.7189 112.49 56.0354C111.597 54.281 111.13 52.2614 111.082 49.9868V48.6302C111.082 46.2638 111.522 44.183 112.39 42.381C113.201 40.6472 114.511 39.1898 116.157 38.1922C117.844 37.1937 119.78 36.6815 121.746 36.7132C123.806 36.7132 125.646 37.1994 127.263 38.1718C128.9 39.1659 130.209 40.6109 131.03 42.33C131.933 44.1218 132.389 46.1754 132.403 48.4976V49.606M126.429 48.5962C126.429 46.1992 126.024 44.3802 125.21 43.146C124.855 42.5547 124.346 42.069 123.735 41.74C123.125 41.411 122.437 41.2507 121.743 41.276C118.8 41.276 117.245 43.4622 117.073 47.838L117.06 49.606C117.06 51.9724 117.454 53.788 118.244 55.0596C119.037 56.3278 120.215 56.9636 121.777 56.9636C123.264 56.9636 124.407 56.3414 125.21 55.0936C126.014 53.8458 126.419 52.0506 126.429 49.7046V48.5962ZM108.988 52.9992C108.941 54.5801 108.47 56.1201 107.621 57.46C106.754 58.7669 105.528 59.8023 104.088 60.4452C102.585 61.1524 100.861 61.506 98.9212 61.506C95.7179 61.506 93.1978 60.4724 91.3541 58.4086C89.5139 56.3414 88.5972 53.4242 88.5972 49.657V48.4636C88.5972 46.0972 89.0092 44.03 89.8332 42.2654C90.5958 40.5741 91.8465 39.1439 93.4279 38.1548C94.9935 37.1824 96.8028 36.6962 98.8525 36.6962C101.809 36.6962 104.184 37.4714 105.98 39.0184C107.776 40.5518 108.795 42.6734 109.043 45.3832H103.189C103.144 43.911 102.77 42.857 102.066 42.2178C101.362 41.5752 100.291 41.2556 98.8525 41.2556C97.3934 41.2556 96.3222 41.7996 95.6424 42.8808C94.9591 43.962 94.6021 45.6892 94.5677 48.0658V49.7726C94.5677 52.3464 94.8905 54.1858 95.5394 55.2942C96.1951 56.3958 97.3247 56.95 98.9212 56.95C100.27 56.95 101.3 56.6338 102.015 56.0014C102.729 55.3724 103.11 54.3694 103.158 52.9992H108.991M205.193 11.3152H197.884V30.9502H192.013V11.3118H184.83V6.82379H205.197V11.3152M173.569 22.4332H170.393V30.9502H164.522V6.82039H174.104C176.995 6.82039 179.254 7.45619 180.882 8.72439C182.509 9.99939 183.323 11.7912 183.323 14.11C183.323 15.7896 182.979 17.1836 182.289 18.292C181.606 19.3936 180.538 20.2878 179.076 20.9712L184.164 30.6952V30.9468H177.871L173.569 22.4332ZM170.393 17.9452H174.104C175.224 17.9452 176.061 17.6562 176.618 17.085C177.184 16.4968 177.469 15.6842 177.469 14.6438C177.469 13.6068 177.184 12.7942 176.618 12.2094C176.048 11.6144 175.21 11.3152 174.104 11.3152H170.396V17.9452M155.001 26.4418H146.947L145.539 30.9502H139.263L148.2 6.82379H153.721L162.723 30.957H156.412L154.998 26.4418M148.351 21.9538H153.59L150.967 13.583L148.351 21.9538ZM118.484 6.82379L123.923 23.6096L129.347 6.82379H137.072V30.957H131.188V25.313L131.758 13.7768L125.866 30.9468H121.986L116.081 13.7598L116.647 25.3096V30.9434H110.776V6.82039L118.488 6.82379M101.857 24.5378C101.875 24.1581 101.8 23.7797 101.64 23.4343C101.48 23.0888 101.239 22.7863 100.937 22.5522C100.332 22.0762 99.268 21.5832 97.7401 21.0766C96.4593 20.6662 95.2069 20.1733 93.9909 19.601C90.8323 18.0676 89.2564 15.9562 89.2564 13.2736C89.2564 11.934 89.6478 10.7576 90.4237 9.74099C91.2168 8.71419 92.3326 7.91859 93.7712 7.35419C95.2132 6.77959 96.8303 6.49399 98.6259 6.49399C100.377 6.49399 101.946 6.79999 103.33 7.42219C104.647 7.97784 105.773 8.89884 106.574 10.0742C107.351 11.2312 107.755 12.5948 107.731 13.9842H101.867C101.867 12.9982 101.558 12.24 100.943 11.6994C100.339 11.1554 99.522 10.8834 98.4852 10.8834C97.4346 10.8834 96.6037 11.1146 95.9926 11.5804C95.7095 11.7752 95.4788 12.0357 95.3208 12.3392C95.1628 12.6426 95.0823 12.9798 95.0862 13.3212C95.0862 13.9366 95.4226 14.501 96.0921 15.011C96.7582 15.5074 97.9358 16.0276 99.6216 16.5716C101.064 16.9969 102.455 17.5749 103.772 18.2954C106.406 19.7948 107.721 21.8654 107.721 24.5072C107.721 26.6152 106.917 28.271 105.311 29.478C103.704 30.6816 101.5 31.28 98.7015 31.28C96.8579 31.3071 95.029 30.9527 93.3317 30.2396C91.7352 29.5324 90.5301 28.5702 89.7164 27.353C88.904 26.0936 88.4859 24.6244 88.5148 23.1302H94.4029C94.4029 24.4222 94.736 25.3776 95.4055 25.9964C96.0887 26.605 97.1874 26.9076 98.7015 26.9076C99.6731 26.9076 100.435 26.7036 100.995 26.2956C101.272 26.0953 101.495 25.8304 101.644 25.5244C101.793 25.2184 101.864 24.8807 101.85 24.5412H101.853" fill="#E5E5E5"/>
        </g>
        <defs>
          <clipPath id="clip0_1_3">
            <rect width="206" height="68" fill="white"/>
          </clipPath>
        </defs>
      </svg>