<?xml version="1.0" encoding="UTF-8" standalone="no"?>
<!-- Created with Inkscape (http://www.inkscape.org/) -->

<svg
   width="157.73502mm"
   height="204.86057mm"
   viewBox="0 0 157.73502 204.86056"
   version="1.1"
   id="svg1"
   xml:space="preserve"
   xmlns="http://www.w3.org/2000/svg"
   xmlns:svg="http://www.w3.org/2000/svg"><defs
     id="defs1" /><g
     id="layer1"
     transform="translate(12.842492,20.116538)"><g
       id="g2"
       transform="translate(4.237288e-7,3.7754285)"><circle
         style="fill:#0e308b;fill-opacity:1;stroke:none;stroke-width:15.2428;stroke-linecap:round;stroke-linejoin:round;stroke-dashoffset:6"
         id="path5"
         cx="61.651535"
         cy="106.95662"
         r="74.011978" /><g
         id="g5"
         transform="matrix(0.8048352,0,0,0.8048352,3.0401919,39.866066)"><path
           style="fill:#d0d0d0;fill-opacity:1"
           d="m 30.527605,138.16838 c 0.181901,-0.0734 0.479557,-0.0734 0.661458,0 0.181901,0.0734 0.03307,0.13345 -0.330729,0.13345 -0.363802,0 -0.51263,-0.06 -0.330729,-0.13345 z m 86.521835,-0.0119 c 0.32911,-0.0633 0.80536,-0.0609 1.05833,0.005 0.25296,0.0662 -0.0163,0.118 -0.5984,0.11506 -0.58208,-0.003 -0.78905,-0.0571 -0.45993,-0.1204 z m -1.39028,-0.33901 c -0.0927,-0.14998 0.0135,-0.19434 0.24897,-0.10398 0.45837,0.17589 0.54223,0.36553 0.16165,0.36553 -0.13693,0 -0.32171,-0.11769 -0.41062,-0.26155 z m 4.36375,-0.3504 c 0,-0.0455 0.38696,-0.43249 0.8599,-0.8599 l 0.85989,-0.7771 -0.7771,0.85989 c -0.72437,0.80155 -0.94269,0.98151 -0.94269,0.77711 z M 26.855835,136.0285 c -0.329107,-0.41964 -0.319749,-0.429 0.0999,-0.0999 0.254662,0.19972 0.463021,0.40808 0.463021,0.46302 0,0.21776 -0.217272,0.0776 -0.562916,-0.36313 z m 94.903885,-0.67287 c 0.0994,-0.26093 0.2473,-0.40778 0.32876,-0.32631 0.0815,0.0815 1.7e-4,0.29495 -0.18065,0.47443 -0.26131,0.25936 -0.2917,0.22897 -0.14811,-0.14812 z m -8.03523,-1.11306 c 0.005,-0.43657 0.0647,-0.58313 0.13178,-0.3257 0.0671,0.25743 0.0627,0.61462 -0.01,0.79375 -0.0725,0.17913 -0.12736,-0.0315 -0.12197,-0.46805 z m -87.831855,-1.19063 c 0,-0.50932 0.05445,-0.71768 0.121,-0.46302 0.06655,0.25466 0.06655,0.67138 0,0.92604 -0.06655,0.25466 -0.121,0.0463 -0.121,-0.46302 z m 0.203199,-1.57188 c 0,-0.13694 0.117699,-0.32171 0.261553,-0.41062 0.149982,-0.0927 0.194339,0.0135 0.103984,0.24897 -0.175892,0.45837 -0.365537,0.54223 -0.365537,0.16165 z m 92.410756,-2.31564 c 0.25744,-0.0671 0.61462,-0.0627 0.79375,0.01 0.17914,0.0725 -0.0315,0.12736 -0.46805,0.12196 -0.43656,-0.005 -0.58313,-0.0647 -0.3257,-0.13177 z m 7.40834,-6.87916 c 0.25743,-0.0671 0.61462,-0.0627 0.79375,0.01 0.17913,0.0725 -0.0315,0.12736 -0.46806,0.12197 -0.43656,-0.005 -0.58312,-0.0647 -0.32569,-0.13177 z M 21.548309,122.02328 c 0.190996,-0.0764 0.419199,-0.067 0.507118,0.0209 0.08792,0.0879 -0.06835,0.15046 -0.347266,0.13897 -0.308224,-0.0127 -0.370919,-0.0754 -0.159852,-0.15986 z m 1.322916,0 c 0.190996,-0.0764 0.419199,-0.067 0.507118,0.0209 0.08792,0.0879 -0.06835,0.15046 -0.347265,0.13897 -0.308225,-0.0127 -0.37092,-0.0754 -0.159853,-0.15986 z m -2.462059,-0.34539 c -0.09269,-0.14998 0.01351,-0.19434 0.248969,-0.10398 0.458368,0.17589 0.542233,0.36553 0.161648,0.36553 -0.136933,0 -0.32171,-0.1177 -0.410617,-0.26155 z m 103.019584,-0.46605 c -0.32911,-0.41965 -0.31975,-0.429 0.0999,-0.0999 0.44073,0.34565 0.58089,0.56292 0.36313,0.56292 -0.0549,0 -0.2633,-0.20836 -0.46302,-0.46302 z M 19.447502,120.94725 c -0.329107,-0.41964 -0.319749,-0.429 0.0999,-0.0999 0.440729,0.34564 0.580887,0.56292 0.363126,0.56292 -0.05494,0 -0.263301,-0.20836 -0.463021,-0.46303 z M 130.09797,118.6101 c 0.0127,-0.30822 0.0754,-0.37092 0.15985,-0.15985 0.0764,0.191 0.067,0.4192 -0.0209,0.50712 -0.0879,0.0879 -0.15045,-0.0683 -0.13896,-0.34727 z m -1.07922,-13.95136 c 0,-0.0455 0.38695,-0.43249 0.85989,-0.8599 l 0.8599,-0.77711 -0.77711,0.8599 c -0.72437,0.80154 -0.94268,0.98151 -0.94268,0.77711 z m -110.629581,-0.9094 c -0.329107,-0.41964 -0.319749,-0.429 0.0999,-0.0999 0.254661,0.19972 0.463021,0.40808 0.463021,0.46302 0,0.21777 -0.217272,0.0776 -0.562916,-0.36312 z m -0.638588,-0.8775 c -0.09592,-0.1552 -0.117656,-0.33893 -0.0483,-0.40829 0.06935,-0.0694 0.196603,0.0576 0.282774,0.28219 0.178907,0.46622 0.02642,0.54823 -0.234472,0.1261 z m 113.120249,-0.76053 c 0,-0.13693 0.1177,-0.32171 0.26155,-0.41062 0.14998,-0.0927 0.19434,0.0135 0.10399,0.24897 -0.1759,0.45837 -0.36554,0.54223 -0.36554,0.16165 z m -56.314472,-0.54478 c 0,-0.36381 0.06005,-0.51263 0.133452,-0.33073 0.0734,0.1819 0.0734,0.47955 0,0.66146 -0.0734,0.1819 -0.133452,0.0331 -0.133452,-0.33073 z m -0.525973,-7.937503 c 0.0043,-0.218281 0.103104,-0.694531 0.219614,-1.058333 0.170293,-0.531742 0.213361,-0.557685 0.219613,-0.132292 0.0043,0.291042 -0.09455,0.767292 -0.219613,1.058333 -0.139313,0.324197 -0.224379,0.375439 -0.219614,0.132292 z m -49.52205,-6.714478 c 0,-0.05494 0.208359,-0.263301 0.46302,-0.463021 0.419644,-0.329107 0.429003,-0.319749 0.0999,0.0999 -0.345643,0.440729 -0.562915,0.580887 -0.562915,0.363126 z m 89.450045,-4.552362 c 0.0127,-0.308224 0.0754,-0.370919 0.15986,-0.159852 0.0764,0.190996 0.067,0.419199 -0.0209,0.507118 -0.0879,0.08792 -0.15045,-0.06835 -0.13897,-0.347266 z m 11.95655,-3.997763 c 0.25743,-0.06708 0.61462,-0.06267 0.79375,0.0098 0.17913,0.07247 -0.0315,0.127362 -0.46806,0.12197 -0.43656,-0.0054 -0.58312,-0.06469 -0.32569,-0.131774 z m -72.989027,-4.645292 -0.504028,-0.595312 0.595312,0.504028 c 0.559447,0.473662 0.715762,0.686597 0.504028,0.686597 -0.05021,0 -0.318097,-0.267891 -0.595312,-0.595313 z m 7.036596,0.495418 c 0,-0.05494 0.20836,-0.263302 0.463021,-0.463021 0.419644,-0.329107 0.429002,-0.319749 0.0999,0.09989 -0.345644,0.440729 -0.562916,0.580887 -0.562916,0.363126 z m 28.012083,-0.363126 c -0.329107,-0.419644 -0.319749,-0.429002 0.0999,-0.09989 0.254661,0.199719 0.463021,0.408079 0.463021,0.463021 0,0.217761 -0.217272,0.0776 -0.562916,-0.363126 z m 7.30979,-0.06615 c 0.26339,-0.291042 0.538421,-0.529167 0.611181,-0.529167 0.07276,0 -0.08321,0.238125 -0.346597,0.529167 -0.263389,0.291042 -0.538421,0.529167 -0.611181,0.529167 -0.07276,0 0.08321,-0.238125 0.346597,-0.529167 z M 51.781305,71.514271 c 0.01269,-0.308224 0.07539,-0.370919 0.159852,-0.159852 0.07643,0.190996 0.06703,0.419199 -0.02089,0.507118 -0.08792,0.08792 -0.150453,-0.06835 -0.138964,-0.347266 z m 44.714581,0 c 0.0127,-0.308224 0.07539,-0.370919 0.159852,-0.159852 0.07643,0.190996 0.06703,0.419199 -0.02089,0.507118 -0.08792,0.08792 -0.150453,-0.06835 -0.138964,-0.347266 z m -48.208802,-3.48368 c -0.329107,-0.419644 -0.319749,-0.429002 0.09989,-0.0999 0.254662,0.199719 0.463021,0.408079 0.463021,0.463021 0,0.217761 -0.217272,0.0776 -0.562916,-0.363126 z m 51.362913,0.363126 c 0,-0.05494 0.20836,-0.263302 0.463023,-0.463021 0.41964,-0.329107 0.429,-0.319749 0.0999,0.0999 -0.345641,0.440729 -0.562913,0.580887 -0.562913,0.363126 z M 41.937085,59.563925 c -0.329108,-0.419644 -0.319749,-0.429003 0.09989,-0.09989 0.254662,0.199719 0.463021,0.408078 0.463021,0.463021 0,0.217761 -0.217272,0.0776 -0.562915,-0.363126 z m -2.645834,-2.645834 c -0.329107,-0.419643 -0.319749,-0.429002 0.09989,-0.09989 0.254662,0.199719 0.463021,0.408078 0.463021,0.46302 0,0.217762 -0.217272,0.0776 -0.562916,-0.363126 z M 10.063405,53.6108 9.559377,53.015487 l 0.595312,0.504028 c 0.559447,0.473662 0.715762,0.686597 0.504028,0.686597 -0.05021,0 -0.318097,-0.26789 -0.595312,-0.595312 z"
           id="path4" /><path
           style="fill:#e690d6;fill-opacity:1;stroke-width:1.24829"
           d="M 18.010854,118.28969 C 12.646399,114.82856 8.1160014,108.79209 6.7329214,92.855076 0.46530622,58.222084 34.547893,48.328425 27.162416,12.941429 c 2.557729,-7.4182575 10.243409,8.214275 8.885348,12.666065 0.190281,18.877705 -14.105382,33.110207 -14.289703,51.995335 -0.392741,6.834228 0.885938,15.83826 8.1792,19.604625 6.203968,4.819826 14.549917,0.132419 18.868724,-4.287691 7.67809,-7.64797 10.582757,-17.355319 15.746293,-26.758954 -5.362971,-3.247537 -7.9607,-10.605304 -2.926738,-16.206725 8.857719,-13.901075 3.14205,3.67178 1.798026,-20.754793 -13.709013,-25.6058957 -5.552488,-60.544476 24.516021,-72.398506 10.207014,-4.023953 26.575963,-4.848567 38.656193,0.547701 12.08023,5.396268 37.34773,19.66793 38.68794,37.2709381 0.97744,15.295608 -13.45562,43.0247749 -27.3967,49.4447079 -34.69807,9.237447 -32.22563,33.241503 -48.671482,31.474143 -5.680739,-0.951068 -11.756125,-3.162569 -16.827922,-5.933639 -7.856158,18.054922 -16.200028,38.094234 -35.079795,46.715554 -5.833603,2.38361 -13.932512,5.43063 -19.296967,1.9695 z m 64.463357,27.41307 c -8.18354,-6.2684 -14.075073,-16.11695 -14.570379,-26.38458 -0.409588,-8.561 2.24985,-18.26085 5.312858,-26.691375 2.81956,-6.393329 5.168435,-15.653278 8.213886,-20.375388 6.521336,0.01921 5.183822,4.759898 3.248477,8.959207 -3.157659,11.509991 -8.802569,26.124036 -2.703523,37.434006 3.344802,4.52561 9.326704,1.24357 12.216745,6.68006 7.065065,1.20536 12.966185,-4.2724 17.591955,-8.76702 11.65956,-13.66445 13.93639,-32.983513 26.1829,-46.208319 5.59363,-5.472294 14.50611,-8.401404 21.92209,-5.154215 -9.84993,3.286159 -19.35263,9.469905 -23.91651,19.213339 -5.45147,10.9667 -7.5877,23.337815 -14.45417,33.666995 -7.14713,12.31582 -16.64182,26.25019 -32.041351,28.03703 -2.308156,0.12167 -4.790428,0.34477 -7.002978,-0.40974 z m 22.574109,-4.20687 c 3.05174,-1.59306 0.2938,0.52115 0,0 z M 29.384657,93.356789 c -0.904766,-3.008144 1.367118,3.230779 0,0 z M 107.7496,114.81457 c 1.75988,0.44755 -0.74054,0.31039 0,0 z m 2.92826,1.2725 c 2.22818,0.55522 -0.443,0.46072 0,0 z M 51.994971,81.990559 c 3.051704,-1.593028 0.293836,0.521074 0,0 z m 21.96432,5.18158 c 0.922091,-1.579786 -0.516976,1.754576 0,0 z m 55.483949,22.281871 c 0.89823,-1.71944 -0.54514,2.04833 0,0 z M 14.964315,54.68424 c 2.85289,-2.103384 -2.488053,1.558313 0,0 z m 120.942465,50.83472 c 1.75984,0.44763 -0.74063,0.31032 0,0 z M 108.64625,91.325423 c -0.90475,-3.00816 1.36714,3.230802 0,0 z m 30.57208,4.898868 c 1.75993,0.448138 -0.74025,0.309391 0,0 z m 17.10659,-2.934282 c 0.70375,-1.116082 -0.31126,1.547034 0,0 z m -16.16666,-8.010522 c 3.05171,-1.593065 0.29389,0.521104 0,0 z M 106.87693,64.893923 c 2.22827,0.554796 -0.44295,0.461216 0,0 z M 68.149386,36.451819 c 3.051726,-1.593048 0.293809,0.521094 0,0 z m 47.344954,19.925757 c -0.33461,-1.899193 0.99349,2.587513 0,0 z m 15.57993,-2.752754 c 3.05169,-1.593062 0.29386,0.521089 0,0 z M 25.656654,-3.8425879 c -0.334625,-1.8991975 0.993477,2.5875008 0,0 z m 18.092222,5.9593473 c -1.123886,-3.5545167 1.579983,3.8379463 0,0 z M 169.45908,50.479244 c 1.75992,0.448166 -0.74025,0.309353 0,0 z m -3.63132,-54.743167 c -0.33657,-1.8462822 0.93826,2.3528973 0,0 z"
           id="path3" /><path
           style="fill:#ca5cbb;fill-opacity:1;stroke-width:1.24829"
           d="m 18.879182,118.58637 c 5.01841,0.19704 17.321086,-0.25066 23.440262,-5.70452 15.051914,-10.16439 23.041376,-27.151104 30.068021,-43.276758 7.473294,3.543617 16.270248,7.176563 24.525892,4.60094 6.163813,-4.499524 6.156113,-14.639188 5.211493,-21.420042 -0.39292,-10.543069 16.70279,-16.212314 22.11874,-7.794918 3.37638,4.293521 7.81214,-1.465893 11.54121,-3.094038 29.04094,-27.792979 23.94812,-64.50118 -7.92757,-84.089266 73.471,30.986151 22.99713,83.701442 2.96016,93.458697 0,0 -26.34557,9.790234 -22.80996,34.031589 -0.575,3.945177 6.00744,15.250306 13.93337,14.066805 -2.80452,6.101831 -5.85323,12.123151 -10.14475,17.336601 -10.58037,-3.95808 -19.506256,-13.33736 -19.847861,-25.091204 -1.289802,-1.132211 -2.926336,13.365054 -3.668896,16.761484 -0.74256,3.39643 1.174219,12.46475 5.926974,16.51547 2.543709,2.16796 -4.556142,-0.91528 -9.590084,-2.64445 -8.732149,-6.66365 -5.429612,-20.74959 -3.51499,-30.048163 1.29599,-5.581169 3.376669,-12.099716 5.297772,-17.493291 -9.453033,-2.990708 -7.338022,-0.98215 -11.710892,11.089008 -6.805466,14.254756 -15.279789,30.774056 -31.904808,34.979546 -7.853952,2.0715 -16.691163,1.85677 -23.904083,-2.18349 z m 63.25236,26.70768 c 5.116624,-0.0823 15.621715,0.0734 20.877758,-4.45986 10.95617,-8.13175 17.5496,-20.68711 23.67935,-32.57581 5.41164,-12.702058 7.60828,-28.788873 19.83412,-37.210944 2.71948,-3.646267 19.71734,-5.832922 8.35496,-7.137222 -4.17166,-1.326561 -13.17457,4.738634 -7.81124,-2.289809 4.43371,-9.984444 18.27339,-15.603078 27.37909,-8.338551 7.8442,9.49903 -12.41465,7.881047 -12.58206,17.392377 -4.18547,11.3076 -3.26559,24.626273 -11.67964,34.199869 -2.29438,3.19711 -9.63472,10.07736 -11.4603,8.9844 2.50432,-5.50243 -2.65016,-2.25609 -11.21126,12.05281 -4.80552,6.05577 -9.4004,7.30316 -7.51156,11.78389 -9.38916,6.90251 -10.43485,9.41437 -20.90096,12.34227 -5.499248,0.68949 -12.234681,-1.96518 -16.968258,-4.74342 z M 70.632483,130.7566 c -0.963166,-3.31093 1.390266,3.42043 0,0 z m -1.854792,-5.05307 c -0.336585,-1.8463 0.938223,2.353 0,0 z M 33.371925,98.992439 c 2.227985,0.554781 -0.442844,0.461231 0,0 z m -7.26716,-4.182997 C 17.616231,84.811274 21.31963,70.208745 25.608398,59.184649 30.579723,46.451238 38.985258,33.201072 35.074211,19.001116 32.628923,12.110976 25.532228,10.496564 28.085578,2.6545246 24.779237,-2.8018409 24.525069,-12.095956 33.607037,-8.186989 c 16.22237,8.48272951 10.021684,37.636068 6.469931,52.984959 -1.954902,5.544608 -4.400816,10.894674 -6.708454,16.296913 4.583799,6.175518 14.271696,6.677979 19.327731,0.747182 2.450265,-1.152714 9.657045,-14.925177 6.839774,-7.48891 -3.345048,6.777357 9.454145,9.091514 5.751304,14.107901 -2.71472,8.223604 -9.924455,13.301719 -18.34538,14.958606 -6.540575,1.300698 -13.067852,-0.675625 -19.120348,-3.03295 -1.36069,4.849633 3.716204,14.03963 0.820712,15.152521 l -1.390751,0.221644 -1.146938,-0.951095 z m 74.741555,29.665918 c 5.58045,-2.23779 -4.870576,2.48977 0,0 z M 70.294763,101.27471 c 0.703701,-1.11611 -0.311141,1.54704 0,0 z m 0.781152,-2.620777 c 0.703701,-1.116096 -0.311157,1.547057 0,0 z M 12.454271,69.316969 c 2.655263,-5.2625 -2.6238321,6.164802 0,0 z m 59.61682,26.284289 c 0.922105,-1.579811 -0.516984,1.754589 0,0 z m 1.610372,-4.48204 c 1.07895,-1.847194 -0.603957,2.052193 0,0 z M 10.208169,56.791693 C 7.0094596,43.225636 13.707717,29.996166 22.217487,19.848757 c 2.363306,-1.771116 5.782615,-12.8467707 5.805725,-4.311251 2.155762,6.587868 5.178407,20.134387 -4.677602,20.303131 6.241318,13.207526 -9.519,17.322246 -10.616819,24.801968 -0.252096,-1.051775 -2.290893,-2.794161 -2.520622,-3.850912 z m 66.637319,26.26345 c 1.819459,-3.554916 -1.583886,4.185677 0,0 z m 48.353122,8.850242 c 4.09974,-9.44508 -2.30155,6.081296 -0.95453,2.232393 l 0.4306,-1.013075 z m 4.52228,-9.881509 c 0.92197,-1.579484 -0.5169,1.754378 0,0 z M 76.665117,44.288037 c 3.089081,-8.91247 -8.834651,-9.605519 -12.015011,-5.525558 -7.322402,-8.046596 3.04682,-16.836993 11.303889,-13.416226 8.874101,1.965822 11.297416,16.913973 1.899627,19.64477 -0.311667,0.703026 -2.277598,0.197152 -1.188505,-0.702986 z M 61.868424,26.577349 c -0.336592,-1.846284 0.938226,2.352921 0,0 z m -1.16787,-2.537873 c -0.931647,-3.22358 1.317064,3.260955 0,0 z m -2.817506,-7.687293 c -0.336589,-1.846288 0.938249,2.352923 0,0 z m 1.370764,-25.5709684 c 1.129395,-2.3259486 -0.790958,2.6007666 0,0 z M 79.686278,-29.19874 c 3.051734,-1.593049 0.293798,0.521099 0,0 z"
           id="path2" /><circle
           style="fill:#ffffff;fill-opacity:1;stroke:none;stroke-width:15.7796;stroke-linecap:round;stroke-linejoin:round;stroke-dashoffset:6"
           id="path6"
           cx="70.339218"
           cy="39.610142"
           r="9.3560219" /><circle
           style="fill:#ffffff;fill-opacity:1;stroke:none;stroke-width:15.7796;stroke-linecap:round;stroke-linejoin:round;stroke-dashoffset:6"
           id="path6-18"
           cx="106.24"
           cy="53.828297"
           r="9.3560219" /><circle
           style="fill:#e8abe0;fill-opacity:1;stroke:none;stroke-width:15.7796;stroke-linecap:round;stroke-linejoin:round;stroke-dashoffset:6"
           id="path6-7"
           cx="25.686867"
           cy="39.810162"
           r="5.2551584" /><circle
           style="fill:#e8abe0;fill-opacity:1;stroke:none;stroke-width:15.7796;stroke-linecap:round;stroke-linejoin:round;stroke-dashoffset:6"
           id="path6-8"
           cx="14.729238"
           cy="60.081783"
           r="6.0518389" /><circle
           style="fill:#e8abe0;fill-opacity:1;stroke:none;stroke-width:15.7796;stroke-linecap:round;stroke-linejoin:round;stroke-dashoffset:6"
           id="path6-6"
           cx="8.1546593"
           cy="82.544922"
           r="6.8485193" /><circle
           style="fill:#e8abe0;fill-opacity:1;stroke:none;stroke-width:15.7796;stroke-linecap:round;stroke-linejoin:round;stroke-dashoffset:6"
           id="path6-3"
           cx="12.197033"
           cy="108.24895"
           r="8.7012739" /><circle
           style="fill:#e8abe0;fill-opacity:1;stroke:none;stroke-width:19.3313;stroke-linecap:round;stroke-linejoin:round;stroke-dashoffset:6"
           id="path6-1"
           cx="104.42706"
           cy="146.13324"
           r="8.3900013" /><circle
           style="fill:#e8abe0;fill-opacity:1;stroke:none;stroke-width:15.7796;stroke-linecap:round;stroke-linejoin:round;stroke-dashoffset:6"
           id="path6-65"
           cx="123.75767"
           cy="131.85426"
           r="6.8485193" /><circle
           style="fill:#e8abe0;fill-opacity:1;stroke:none;stroke-width:13.7078;stroke-linecap:round;stroke-linejoin:round;stroke-dashoffset:6"
           id="path6-4"
           cx="133.8161"
           cy="111.23132"
           r="5.9493217" /><circle
           style="fill:#e8abe0;fill-opacity:1;stroke:none;stroke-width:12.5239;stroke-linecap:round;stroke-linejoin:round;stroke-dashoffset:6"
           id="path6-84"
           cx="141.52051"
           cy="88.802238"
           r="5.4354944" /><circle
           style="fill:#000000;fill-opacity:1;stroke:#000000;stroke-width:4.87629;stroke-linecap:round;stroke-linejoin:round;stroke-dasharray:none;stroke-dashoffset:6;stroke-opacity:1"
           id="path8"
           cx="72.075272"
           cy="40.977345"
           r="2.3246391" /><circle
           style="fill:#000000;fill-opacity:1;stroke:#000000;stroke-width:4.87629;stroke-linecap:round;stroke-linejoin:round;stroke-dasharray:none;stroke-dashoffset:6;stroke-opacity:1"
           id="path8-5"
           cx="107.38999"
           cy="55.949451"
           r="2.3246391" /><path
           style="fill:#ffd814;fill-opacity:1"
           d="m 15.793938,-5.4604462 c -0.374739,-0.47641 -0.681344,-1.23447 -0.681344,-1.68459 0,-1.48087 -1.629965,-8.9042198 -2.671295,-12.1658898 -3.3231952,-10.40896 -7.0515502,-14.121591 -17.562682,-17.488611 -3.170294,-1.01553 -10.594786,-2.6414 -12.061919,-2.6414 -1.326123,0 -2.550781,-1.183749 -2.550781,-2.465569 0,-1.28182 1.224658,-2.46556 2.550781,-2.46556 1.486274,0 8.909931,-1.63174 12.165885,-2.6741 10.4174918,-3.33504 14.1381088,-7.05506 17.458716,-17.455906 1.04133,-3.26167 2.671295,-10.68503 2.671295,-12.16589 0,-1.32612 1.183746,-2.55078 2.465567,-2.55078 1.28182,0 2.465567,1.22466 2.465567,2.55078 0,1.48086 1.629964,8.90422 2.671294,12.16589 3.320607,10.400846 7.041225,14.120866 17.458716,17.455906 3.255954,1.04236 10.679611,2.6741 12.165886,2.6741 1.326123,0 2.550782,1.18374 2.550782,2.46556 0,1.25642 -1.217874,2.465569 -2.483347,2.465569 -1.464882,0 -9.066371,1.66024 -12.205587,2.66582 -10.446994,3.34647 -14.150616,7.061051 -17.516343,17.568161 -1.015535,3.17029 -2.641401,10.5947798 -2.641401,12.0619198 0,1.32612 -1.183747,2.55078 -2.465567,2.55078 -0.799902,0 -1.290053,-0.23796 -1.784223,-0.86619 z"
           id="path9" /><path
           d="m 137.11699,171.31703 c -0.41182,-0.42905 -0.88101,-1.80824 -1.13776,-3.34442 -1.08761,-6.50716 -3.09465,-10.90879 -5.7554,-12.62209 -1.80968,-1.1653 -5.93187,-2.57854 -9.19253,-3.15157 -3.07527,-0.54044 -4.13631,-1.34047 -4.13631,-3.11883 0,-1.78136 1.0603,-2.57825 4.15382,-3.12189 5.82119,-1.023 9.72006,-2.88876 11.55661,-5.53023 1.2311,-1.77069 2.70684,-6.24993 3.37381,-10.24037 0.49615,-2.96841 1.29956,-4.07457 2.95941,-4.07457 1.67644,0 2.46433,1.10216 2.95685,4.1363 0.52705,3.24688 2.01029,8.06052 3.00998,9.76841 1.56211,2.66877 6.13891,4.93004 12.10683,5.98165 2.91215,0.51315 3.97,1.33404 3.97,3.0807 0,1.7294 -1.06169,2.56646 -3.91075,3.08337 -6.24553,1.13319 -10.47019,3.2243 -12.11462,5.99652 -1.11843,1.8855 -2.47487,6.18034 -3.02486,9.57763 -0.28372,1.7526 -0.72941,3.1185 -1.16593,3.57333 -0.90474,0.94263 -2.7473,0.9457 -3.64915,0.006 z"
           style="fill:#ffd814;fill-opacity:1;stroke-width:1.44139"
           id="path1-3" /><path
           d="m 153.2722,0.60189235 c -0.29163,-0.29162 -0.62389,-1.22904 -0.80571,-2.27316005 -0.7702,-4.42283 -2.19151,-7.4145599 -4.07574,-8.5790703 -1.28154,-0.79204 -4.20071,-1.7526 -6.50978,-2.14208 -2.17778,-0.36733 -2.92916,-0.9111 -2.92916,-2.11983 0,-1.21077 0.75086,-1.7524 2.94156,-2.12191 4.12233,-0.69532 6.88335,-1.96345 8.18392,-3.75882 0.87182,-1.20352 1.91688,-4.248 2.3892,-6.96025 0.35135,-2.01759 0.92029,-2.76943 2.09573,-2.76943 1.18719,0 1.74514,0.74912 2.09392,2.81139 0.37324,2.20686 1.42361,5.47863 2.13155,6.63946 1.10622,1.81393 4.34732,3.35088 8.57356,4.06565 2.06227,0.34878 2.81139,0.90673 2.81139,2.09391 0,1.17545 -0.75184,1.74439 -2.76943,2.09573 -4.42283,0.77021 -7.41456,2.19151 -8.57908,4.0757504 -0.79203,1.2815499 -1.7526,4.2006999 -2.14208,6.5097899 -0.20092,1.19122005 -0.51654,2.11961005 -0.82567,2.42875005 -0.6407,0.64068995 -1.94552,0.64277995 -2.58418,0.004 z"
           style="fill:#ffd814;fill-opacity:1"
           id="path1-3-2" /></g><path
         style="fill:none;fill-opacity:1;stroke:#000000;stroke-width:2.11667;stroke-linecap:round;stroke-linejoin:round;stroke-dasharray:none;stroke-dashoffset:6;stroke-opacity:1"
         d="m 63.425954,85.767026 c 1.811475,5.796719 6.429442,6.635218 11.50157,3.736859"
         id="path7" /></g><path
       style="fill:#000000"
       id="path1"
       d="" /></g></svg>
