<?xml version="1.0" encoding="UTF-8" standalone="no"?>
<svg
   width="32"
   height="32"
   version="1.1"
   id="svg2"
   xmlns="http://www.w3.org/2000/svg"
   xmlns:svg="http://www.w3.org/2000/svg">
  <defs
     id="defs2" />
  <path
     d="M3 0h26c1.662 0 3 1.338 3 3v26c0 1.662-1.338 3-3 3H3c-1.662 0-3-1.338-3-3V3c0-1.662 1.338-3 3-3Z"
     style="fill:#262626;fill-opacity:1"
     id="path1" />
  <path
     d="M6.346 0v16.693a.651.651 0 0 0 .65.65h6.428c.847 0 1.469.797 1.264 1.618l-3.061 12.23c-.103.411.209.809.633.809H29c1.662 0 3-1.338 3-3V17.344H19.736a1.302 1.302 0 0 1-1.263-1.617L22.406 0H6.346z"
     style="fill:#ebff00;fill-opacity:1"
     id="path2" />
</svg>
