<?xml version="1.0" encoding="UTF-8" standalone="no"?>
<svg
   viewBox="0 0 991.38102 192.77001"
   version="1.1"
   id="svg1"
   width="991.38098"
   height="192.77"
   xmlns="http://www.w3.org/2000/svg"
   xmlns:svg="http://www.w3.org/2000/svg">
  <defs
     id="defs1" />
  <path
     d="m 320.328,1.948 -41.15,-0.036 c -1.104,0 -2.019,0.896 -2.019,2 v 138.103 c 0,2.216 -1.799,4.046 -4.015,4.037 l -45.176,-0.066 c -12.15,0 -22,-9.85 -22,-22 V 3.92 a 2,2 0 0 0 -2,-2 h -41.246 a 2,2 0 0 0 -2,2 v 116.298 c 0,49.448 39.651,72.552 69.372,72.552 14.366,0 21.778,-11.775 43.281,-33.277 0.889,-0.878 1.612,-1.114 2.472,-0.814 0.07,0.025 0.135,0.057 0.202,0.091 0.031,0.016 0.06,0.036 0.09,0.053 0.585,0.33 1.021,0.931 1.021,1.723 v 28.807 a 1.995,1.995 0 0 0 1.927,1.494 h 41.215 a 2,2 0 0 0 2,-2 l 0.027,-184.9 a 2,2 0 0 0 -2,-2 z M 141.059,146.053 H 41.18 c -2.603,0 -4.512,-2.446 -3.881,-4.97 L 71.369,4.406 A 2,2 0 0 0 69.429,1.921 H 2 a 2,2 0 0 0 -2,2 l 0.063,140.102 a 2,2 0 0 0 2,2 h 19.735 c 2.602,0 4.512,2.445 3.881,4.97 l -9.395,37.37 a 2,2 0 0 0 1.94,2.485 H 141.06 a 2,2 0 0 0 2,-2 v -40.795 a 2,2 0 0 0 -2,-2 z M 892.557,0.092 c -72.323,0 -98.547,48.307 -98.547,96.615 0,49.136 26.224,96.063 98.547,96.063 72.875,0 98.824,-47.204 98.824,-96.063 0,-48.031 -25.948,-96.615 -98.824,-96.615 z m 44.569,114.071 c 0,17.673 -14.327,32 -32,32 h -24.862 c -17.673,0 -32,-14.327 -32,-32 V 78.947 c 0,-17.673 14.327,-32 32,-32 h 24.862 c 17.673,0 32,14.327 32,32 z m -428.512,31.89 h -77.932 a 2,2 0 0 1 -1.792,-2.888 L 497.436,4.815 A 2,2 0 0 0 495.648,1.921 H 359.926 a 2,2 0 0 0 -1.94,1.515 l -10.217,41.119 a 2,2 0 0 0 1.941,2.484 l 79.521,-0.011 a 2,2 0 0 1 1.792,2.889 l -68.659,138.052 c -0.659,1.329 0.308,2.889 1.792,2.889 h 134.159 a 2,2 0 0 0 1.94,-1.515 l 10.299,-40.805 a 2,2 0 0 0 -1.94,-2.485 z M 709.806,0 c -12.834,0 -14.27,6.277 -37.285,34.772 A 1.993,1.993 0 0 1 669.355,34.7 C 663.672,26.901 646.054,0 621.231,0 c -10.348,0 -12.02,5.593 -36.281,33.277 -0.889,0.878 -1.612,1.114 -2.472,0.814 A 1.735,1.735 0 0 1 582.276,34 c -0.031,-0.016 -0.06,-0.036 -0.09,-0.053 -0.585,-0.33 -1.021,-0.931 -1.021,-1.723 V 3.417 a 1.995,1.995 0 0 0 -1.927,-1.494 h -41.215 a 2,2 0 0 0 -2,2 l -0.027,184.9 a 2,2 0 0 0 2,2 l 41.15,0.036 c 1.104,0 2.019,-0.896 2.019,-2 V 50.756 c 0,-2.216 1.799,-4.046 4.015,-4.037 l 20.656,0.066 c 12.15,0 22,9.85 22,22 v 120.066 a 2,2 0 0 0 2,2 h 41.246 a 2,2 0 0 0 2,-2 V 72.553 l 0.059,-21.797 c 0,-2.216 1.798,-4.046 4.014,-4.037 l 20.656,0.066 c 12.15,0 22,9.85 22,22 v 120.066 a 2,2 0 0 0 2,2 h 41.246 a 2,2 0 0 0 2,-2 V 72.553 c 0,-49.448 -32.479,-72.552 -55.252,-72.552 z"
     id="path1"
     style="fill:#ffffff" />
</svg>
