<?xml version="1.0" encoding="UTF-8" standalone="no"?>
<svg
   width="286.3"
   height="356.9"
   viewBox="0 0 75.7 94.4"
   xml:space="preserve"
   version="1.1"
   id="svg8"
   xmlns="http://www.w3.org/2000/svg"
   xmlns:svg="http://www.w3.org/2000/svg">&#10;  <path
   style="stroke-width:1.0136;fill:url(#b)"
   fill="url(#b)"
   d="m23.3 104-.7-.4v-4.8c-.2-5.9-.3-5.7 3.5-5.7h2.4v-6.9c0-6.4 0-7 .5-7.5.5-.7.6-.7 6-.7l5.5-.1c.4 0 1.7-4.5 2-7.6.6-4.2-.1-6.7-2.2-8-3.2-2-6.3-5.6-8.6-9.5-.6-1-1.1-1.6-1.6-1.7-9-1.8-16-10-19.2-22.4a48 48 0 0 1-1.4-10c0-2.2 0-2.3.8-3l.7-.9h11.5v-2c0-3.4-3-3 24.8-3s24.9-.4 24.9 3v2h11.4l.8.9.8.8-.1 3.4a39.7 39.7 0 0 1-9.3 24.5c-3.4 3.7-7 5.8-11.3 6.7-.5.1-.9.5-1.4 1.5-1 1.9-4.1 6-5.6 7.3L54.7 62a5.3 5.3 0 0 0-2 2.2c-1.2 2.4-1 6.2.5 11l.7 2.7h5.6c5 .1 5.6.2 6 .6.6.5.6.8.6 7.6v7h2.4c2.2 0 2.5 0 3 .7.7.7.7.7.7 5-.1 3.7-.2 4.4-.6 4.8-.5.5-1.8.5-24 .6-18.8 0-23.8 0-24.3-.3zm4.4-59.5-.6-2a97.2 97.2 0 0 1-4-18.6c-.2-2-.5-3.6-.6-3.7-.1-.1-1.9-.2-3.9-.1h-3.7v.8c-.2 1 .3 4 1 6.7 1.7 6.7 5 12.2 9.2 15.5 2 1.5 2.6 1.9 2.6 1.4zm40-.1c.7-.4 2.5-1.8 3.7-2.8 1.1-1 3.6-4.6 4.8-7 2-4.1 3.8-10.8 3.6-13.5v-1H72l-.6 3.8a94.4 94.4 0 0 1-4 18.9c-.8 2-.8 2.2.3 1.6z"
   transform="translate(-9.5 -9.8)"
   id="path1" />&#10;  <defs
   id="defs8">&#10;    <linearGradient
   id="b"
   x1="9.4589758"
   x2="241.7348"
   y1="12.121282"
   y2="122.54924"
   gradientUnits="userSpaceOnUse">&#10;      <stop
   stop-color="#E40035"
   id="stop1"
   offset="0"
   style="stop-color:#123496;stop-opacity:1;" /><stop
   stop-color="#E40035"
   id="stop9"
   offset="0.48335552"
   style="stop-color:#cd00ff;stop-opacity:1;" />&#10;      &#10;      &#10;      &#10;      &#10;      <stop
   offset="1"
   stop-color="#6C00F5"
   id="stop6"
   style="stop-color:#c42ff5;stop-opacity:1;" />&#10;    </linearGradient>&#10;    <linearGradient
   id="c"
   x1="41.025"
   x2="156.741"
   y1="28.344"
   y2="160.344"
   gradientUnits="userSpaceOnUse">&#10;      <stop
   stop-color="#FF31D9"
   id="stop7" />&#10;      <stop
   offset="1"
   stop-color="#FF5BE1"
   stop-opacity="0"
   id="stop8" />&#10;    </linearGradient>&#10;  </defs>&#10;</svg>
