<svg xmlns="http://www.w3.org/2000/svg" fill="none" viewBox="0 0 232 232"><g clip-path="url(#a)"><path fill="#262626" d="M108.954 155.458c1.671-6.682-3.395-13.158-10.296-13.158H46.305A5.301 5.301 0 0 1 41 137.004V0H20C8.954 0 0 8.954 0 20v192c0 11.046 8.954 20 20 20h69.786l19.168-76.542Zm41.127-13.163H232V20c0-11.046-8.954-20-20-20h-39.875l-32.34 129.136c-1.671 6.683 3.39 13.159 10.296 13.159Z"/><path fill="#EBFF00" d="M46.305 142.3h52.353c6.901 0 11.967 6.476 10.296 13.158L89.786 232H212c11.046 0 20-8.954 20-20v-69.705h-81.919c-6.906 0-11.967-6.476-10.296-13.159L172.125 0H41v137.004a5.302 5.302 0 0 0 5.305 5.296Z"/></g><defs><clipPath id="a"><path fill="#fff" d="M0 0h232v232H0z"/></clipPath></defs></svg>